<?xml version="1.0" encoding="UTF-8" standalone="no"?>
<!-- Created with Inkscape (http://www.inkscape.org/) -->

<svg
   xmlns:dc="http://purl.org/dc/elements/1.1/"
   xmlns:cc="http://creativecommons.org/ns#"
   xmlns:rdf="http://www.w3.org/1999/02/22-rdf-syntax-ns#"
   xmlns:svg="http://www.w3.org/2000/svg"
   xmlns="http://www.w3.org/2000/svg"
   xmlns:sodipodi="http://sodipodi.sourceforge.net/DTD/sodipodi-0.dtd"
   xmlns:inkscape="http://www.inkscape.org/namespaces/inkscape"
   width="4.4979167mm"
   height="3.1976514mm"
   viewBox="0 0 4.4979167 3.1976514"
   version="1.1"
   id="svg6427"
   inkscape:version="0.92.0 r"
   sodipodi:docname="email.svg">
  <defs
     id="defs6421" />
  <sodipodi:namedview
     id="base"
     pagecolor="#ffffff"
     bordercolor="#666666"
     borderopacity="1.0"
     inkscape:pageopacity="0.0"
     inkscape:pageshadow="2"
     inkscape:zoom="3.959798"
     inkscape:cx="-39.843472"
     inkscape:cy="51.776462"
     inkscape:document-units="mm"
     inkscape:current-layer="layer1"
     showgrid="false"
     inkscape:window-width="1600"
     inkscape:window-height="844"
     inkscape:window-x="1366"
     inkscape:window-y="0"
     inkscape:window-maximized="1"
     fit-margin-top="0"
     fit-margin-left="0"
     fit-margin-right="0"
     fit-margin-bottom="0" />
  <metadata
     id="metadata6424">
    <rdf:RDF>
      <cc:Work
         rdf:about="">
        <dc:format>image/svg+xml</dc:format>
        <dc:type
           rdf:resource="http://purl.org/dc/dcmitype/StillImage" />
        <dc:title></dc:title>
      </cc:Work>
    </rdf:RDF>
  </metadata>
  <g
     inkscape:label="Capa 1"
     inkscape:groupmode="layer"
     id="layer1"
     transform="translate(-85.413818,-141.73692)">
    <g
       style="fill:#78909c;fill-opacity:1"
       transform="matrix(0.14503794,0,0,0.14503794,85.413818,141.08686)"
       id="g6375">
      <g
         style="fill:#78909c;fill-opacity:1"
         id="g6343">
        <g
           style="fill:#78909c;fill-opacity:1"
           id="g6337">
          <path
             style="fill:#78909c;fill-opacity:1"
             inkscape:connector-curvature="0"
             d="m 25.109,21.51 c -0.123,0 -0.246,-0.045 -0.342,-0.136 l -5.754,-5.398 c -0.201,-0.188 -0.211,-0.505 -0.022,-0.706 0.189,-0.203 0.504,-0.212 0.707,-0.022 l 5.754,5.398 c 0.201,0.188 0.211,0.505 0.022,0.706 -0.099,0.105 -0.231,0.158 -0.365,0.158 z"
             id="path6333" />
          <path
             style="fill:#78909c;fill-opacity:1"
             inkscape:connector-curvature="0"
             d="M 5.902,21.51 C 5.769,21.51 5.636,21.457 5.537,21.352 5.348,21.151 5.358,20.834 5.559,20.646 l 5.756,-5.398 c 0.202,-0.188 0.519,-0.18 0.707,0.022 0.189,0.201 0.179,0.518 -0.022,0.706 L 6.244,21.374 C 6.148,21.465 6.025,21.51 5.902,21.51 Z"
             id="path6335" />
        </g>
        <path
           style="fill:#78909c;fill-opacity:1"
           inkscape:connector-curvature="0"
           d="M 28.512,26.529 H 2.5 C 1.122,26.529 0,25.408 0,24.029 V 6.982 c 0,-1.379 1.122,-2.5 2.5,-2.5 h 26.012 c 1.378,0 2.5,1.121 2.5,2.5 v 17.047 c 0,1.379 -1.122,2.5 -2.5,2.5 z M 2.5,5.482 C 1.673,5.482 1,6.155 1,6.982 v 17.047 c 0,0.827 0.673,1.5 1.5,1.5 h 26.012 c 0.827,0 1.5,-0.673 1.5,-1.5 V 6.982 c 0,-0.827 -0.673,-1.5 -1.5,-1.5 z"
           id="path6339" />
        <path
           style="fill:#78909c;fill-opacity:1"
           inkscape:connector-curvature="0"
           d="m 15.506,18.018 c -0.665,0 -1.33,-0.221 -1.836,-0.662 L 0.83,6.155 C 0.622,5.974 0.6,5.658 0.781,5.449 0.964,5.241 1.279,5.222 1.487,5.401 l 12.84,11.2 c 0.639,0.557 1.719,0.557 2.357,0 L 29.508,5.419 c 0.207,-0.181 0.522,-0.161 0.706,0.048 0.181,0.209 0.16,0.524 -0.048,0.706 L 17.342,17.355 c -0.507,0.442 -1.171,0.663 -1.836,0.663 z"
           id="path6341" />
      </g>
      <g
         style="fill:#78909c;fill-opacity:1"
         id="g6345" />
      <g
         style="fill:#78909c;fill-opacity:1"
         id="g6347" />
      <g
         style="fill:#78909c;fill-opacity:1"
         id="g6349" />
      <g
         style="fill:#78909c;fill-opacity:1"
         id="g6351" />
      <g
         style="fill:#78909c;fill-opacity:1"
         id="g6353" />
      <g
         style="fill:#78909c;fill-opacity:1"
         id="g6355" />
      <g
         style="fill:#78909c;fill-opacity:1"
         id="g6357" />
      <g
         style="fill:#78909c;fill-opacity:1"
         id="g6359" />
      <g
         style="fill:#78909c;fill-opacity:1"
         id="g6361" />
      <g
         style="fill:#78909c;fill-opacity:1"
         id="g6363" />
      <g
         style="fill:#78909c;fill-opacity:1"
         id="g6365" />
      <g
         style="fill:#78909c;fill-opacity:1"
         id="g6367" />
      <g
         style="fill:#78909c;fill-opacity:1"
         id="g6369" />
      <g
         style="fill:#78909c;fill-opacity:1"
         id="g6371" />
      <g
         style="fill:#78909c;fill-opacity:1"
         id="g6373" />
    </g>
  </g>
</svg>
