<?xml version="1.0" encoding="UTF-8" standalone="no"?>
<!-- Created with Inkscape (http://www.inkscape.org/) -->

<svg
   xmlns:dc="http://purl.org/dc/elements/1.1/"
   xmlns:cc="http://creativecommons.org/ns#"
   xmlns:rdf="http://www.w3.org/1999/02/22-rdf-syntax-ns#"
   xmlns:svg="http://www.w3.org/2000/svg"
   xmlns="http://www.w3.org/2000/svg"
   xmlns:sodipodi="http://sodipodi.sourceforge.net/DTD/sodipodi-0.dtd"
   xmlns:inkscape="http://www.inkscape.org/namespaces/inkscape"
   width="4.5607643mm"
   height="3.8006456mm"
   viewBox="0 0 4.5607643 3.8006456"
   version="1.1"
   id="svg6427"
   inkscape:version="0.92.0 r"
   sodipodi:docname="sms.svg">
  <defs
     id="defs6421" />
  <sodipodi:namedview
     id="base"
     pagecolor="#ffffff"
     bordercolor="#666666"
     borderopacity="1.0"
     inkscape:pageopacity="0.0"
     inkscape:pageshadow="2"
     inkscape:zoom="3.959798"
     inkscape:cx="8.7301474"
     inkscape:cy="9.1156267"
     inkscape:document-units="mm"
     inkscape:current-layer="layer1"
     showgrid="false"
     inkscape:window-width="1600"
     inkscape:window-height="844"
     inkscape:window-x="1366"
     inkscape:window-y="0"
     inkscape:window-maximized="1"
     fit-margin-top="0"
     fit-margin-left="0"
     fit-margin-right="0"
     fit-margin-bottom="0" />
  <metadata
     id="metadata6424">
    <rdf:RDF>
      <cc:Work
         rdf:about="">
        <dc:format>image/svg+xml</dc:format>
        <dc:type
           rdf:resource="http://purl.org/dc/dcmitype/StillImage" />
        <dc:title></dc:title>
      </cc:Work>
    </rdf:RDF>
  </metadata>
  <g
     inkscape:label="Capa 1"
     inkscape:groupmode="layer"
     id="layer1"
     transform="translate(-72.562048,-129.84658)">
    <g
       style="fill:#78909c;fill-opacity:1"
       transform="matrix(-0.0484611,0,0,0.0484611,75.446726,129.93833)"
       id="g6331">
      <g
         transform="matrix(0.06266982,0,0,0.06266982,10.554058,34.919619)"
         style="fill:#78909c;fill-opacity:1"
         id="g6299">
        <g
           transform="matrix(2.7857102,0,0,2.7857102,-720.28757,-712.55106)"
           id="g6297">
          <g
             id="g6265">
            <g
               id="g6263">
              <path
                 inkscape:connector-curvature="0"
                 d="m 78.615,494.154 c -1.448,0 -2.906,-0.285 -4.299,-0.855 -4.201,-1.733 -6.931,-5.835 -6.931,-10.375 V 404.309 H 33.692 C 15.113,404.308 0,389.194 0,370.615 v -292 C 0,60.036 15.113,44.923 33.692,44.923 h 471.692 c 18.579,0 33.692,15.113 33.692,33.692 v 292 c 0,18.579 -15.113,33.692 -33.692,33.692 H 173.112 l -86.556,86.556 c -2.15,2.15 -5.023,3.291 -7.941,3.291 z M 33.692,67.385 c -6.197,0 -11.231,5.034 -11.231,11.231 v 292 c 0,6.186 5.034,11.231 11.231,11.231 h 44.923 c 6.208,0 11.231,5.023 11.231,11.231 v 62.734 l 70.675,-70.675 c 2.106,-2.106 4.957,-3.29 7.941,-3.29 h 336.923 c 6.186,0 11.231,-5.045 11.231,-11.231 v -292 c 0,-6.197 -5.045,-11.231 -11.231,-11.231 H 33.692 Z"
                 id="path6255" />
              <path
                 inkscape:connector-curvature="0"
                 d="m 190.923,247.077 c -12.382,0 -22.462,-10.079 -22.462,-22.462 0,-12.382 10.079,-22.462 22.462,-22.462 12.382,0 22.462,10.079 22.462,22.462 0,12.383 -10.08,22.462 -22.462,22.462 z"
                 id="path6257" />
              <path
                 inkscape:connector-curvature="0"
                 d="m 370.615,247.077 c -12.393,0 -22.462,-10.079 -22.462,-22.462 0,-12.382 10.068,-22.462 22.462,-22.462 12.394,0 22.462,10.079 22.462,22.462 0,12.383 -10.068,22.462 -22.462,22.462 z"
                 id="path6259" />
              <path
                 inkscape:connector-curvature="0"
                 d="m 280.769,247.077 c -12.382,0 -22.462,-10.079 -22.462,-22.462 0,-12.382 10.079,-22.462 22.462,-22.462 12.393,0 22.462,10.079 22.462,22.462 0,12.383 -10.068,22.462 -22.462,22.462 z"
                 id="path6261" />
            </g>
          </g>
          <g
             id="g6267" />
          <g
             id="g6269" />
          <g
             id="g6271" />
          <g
             id="g6273" />
          <g
             id="g6275" />
          <g
             id="g6277" />
          <g
             id="g6279" />
          <g
             id="g6281" />
          <g
             id="g6283" />
          <g
             id="g6285" />
          <g
             id="g6287" />
          <g
             id="g6289" />
          <g
             id="g6291" />
          <g
             id="g6293" />
          <g
             id="g6295" />
        </g>
      </g>
      <g
         style="fill:#78909c;fill-opacity:1"
         id="g6301" />
      <g
         style="fill:#78909c;fill-opacity:1"
         id="g6303" />
      <g
         style="fill:#78909c;fill-opacity:1"
         id="g6305" />
      <g
         style="fill:#78909c;fill-opacity:1"
         id="g6307" />
      <g
         style="fill:#78909c;fill-opacity:1"
         id="g6309" />
      <g
         style="fill:#78909c;fill-opacity:1"
         id="g6311" />
      <g
         style="fill:#78909c;fill-opacity:1"
         id="g6313" />
      <g
         style="fill:#78909c;fill-opacity:1"
         id="g6315" />
      <g
         style="fill:#78909c;fill-opacity:1"
         id="g6317" />
      <g
         style="fill:#78909c;fill-opacity:1"
         id="g6319" />
      <g
         style="fill:#78909c;fill-opacity:1"
         id="g6321" />
      <g
         style="fill:#78909c;fill-opacity:1"
         id="g6323" />
      <g
         style="fill:#78909c;fill-opacity:1"
         id="g6325" />
      <g
         style="fill:#78909c;fill-opacity:1"
         id="g6327" />
      <g
         style="fill:#78909c;fill-opacity:1"
         id="g6329" />
    </g>
  </g>
</svg>
