<?xml version="1.0" encoding="UTF-8" standalone="no"?>
<!-- Created with Inkscape (http://www.inkscape.org/) -->

<svg
   xmlns:dc="http://purl.org/dc/elements/1.1/"
   xmlns:cc="http://creativecommons.org/ns#"
   xmlns:rdf="http://www.w3.org/1999/02/22-rdf-syntax-ns#"
   xmlns:svg="http://www.w3.org/2000/svg"
   xmlns="http://www.w3.org/2000/svg"
   xmlns:sodipodi="http://sodipodi.sourceforge.net/DTD/sodipodi-0.dtd"
   xmlns:inkscape="http://www.inkscape.org/namespaces/inkscape"
   width="6.4276195mm"
   height="3.0460832mm"
   viewBox="0 0 6.4276194 3.0460832"
   version="1.1"
   id="svg6427"
   inkscape:version="0.92.0 r"
   sodipodi:docname="statistics.svg">
  <defs
     id="defs6421" />
  <sodipodi:namedview
     id="base"
     pagecolor="#ffffff"
     bordercolor="#666666"
     borderopacity="1.0"
     inkscape:pageopacity="0.0"
     inkscape:pageshadow="2"
     inkscape:zoom="1.4"
     inkscape:cx="84.318469"
     inkscape:cy="-36.157511"
     inkscape:document-units="mm"
     inkscape:current-layer="layer1"
     showgrid="false"
     inkscape:window-width="1600"
     inkscape:window-height="844"
     inkscape:window-x="1366"
     inkscape:window-y="0"
     inkscape:window-maximized="1"
     fit-margin-top="0"
     fit-margin-left="0"
     fit-margin-right="0"
     fit-margin-bottom="0" />
  <metadata
     id="metadata6424">
    <rdf:RDF>
      <cc:Work
         rdf:about="">
        <dc:format>image/svg+xml</dc:format>
        <dc:type
           rdf:resource="http://purl.org/dc/dcmitype/StillImage" />
        <dc:title></dc:title>
      </cc:Work>
    </rdf:RDF>
  </metadata>
  <g
     inkscape:label="Capa 1"
     inkscape:groupmode="layer"
     id="layer1"
     transform="translate(-70.453445,-123.89575)">
    <g
       style="fill:#78909c;fill-opacity:1"
       transform="matrix(0.01255392,0,0,0.01255392,70.453445,122.20499)"
       id="g6180">
      <g
         style="fill:#78909c;fill-opacity:1"
         id="g6134">
        <g
           style="fill:#78909c;fill-opacity:1"
           id="g6132">
          <path
             style="fill:#78909c;fill-opacity:1"
             inkscape:connector-curvature="0"
             d="m 457.637,134.681 c -29.976,0 -54.363,24.387 -54.363,54.363 0,10.933 3.255,21.114 8.831,29.647 l -58.733,58.733 c -8.534,-5.576 -18.715,-8.831 -29.648,-8.831 -11.329,0 -21.858,3.488 -30.576,9.441 L 233.81,218.687 c 5.575,-8.533 8.828,-18.713 8.828,-29.644 0,-29.976 -24.387,-54.363 -54.363,-54.363 -29.976,0 -54.363,24.387 -54.363,54.363 0,10.931 3.254,21.108 8.827,29.641 L 84.004,277.42 C 75.472,271.846 65.293,268.593 54.363,268.593 24.387,268.593 0,292.981 0,322.957 c 0,29.976 24.387,54.363 54.363,54.363 29.976,0 54.363,-24.387 54.363,-54.363 0,-10.933 -3.255,-21.114 -8.831,-29.648 l 58.733,-58.733 c 8.534,5.576 18.715,8.831 29.648,8.831 10.932,0 21.113,-3.255 29.646,-8.831 l 59.666,59.674 c -5.206,8.338 -8.226,18.174 -8.226,28.706 0,29.976 24.387,54.363 54.363,54.363 29.976,0 54.363,-24.387 54.363,-54.363 0,-10.931 -3.254,-21.109 -8.827,-29.641 l 58.736,-58.736 c 8.533,5.574 18.712,8.827 29.641,8.827 29.976,0 54.363,-24.387 54.363,-54.363 0,-29.977 -24.388,-54.362 -54.364,-54.362 z M 54.363,354.849 c -17.586,0 -31.893,-14.307 -31.893,-31.892 0,-17.586 14.307,-31.893 31.893,-31.893 17.585,0 31.893,14.307 31.893,31.893 0,17.585 -14.307,31.892 -31.893,31.892 z M 188.276,220.936 c -17.585,0 -31.893,-14.307 -31.893,-31.893 0,-17.585 14.307,-31.893 31.893,-31.893 17.586,0 31.893,14.307 31.893,31.893 0,17.586 -14.307,31.893 -31.893,31.893 z m 135.448,133.913 c -17.585,0 -31.893,-14.307 -31.893,-31.893 0,-17.586 14.307,-31.893 31.893,-31.893 17.585,0 31.893,14.307 31.893,31.893 -0.001,17.586 -14.308,31.893 -31.893,31.893 z M 457.637,220.936 c -17.585,0 -31.893,-14.307 -31.893,-31.893 0,-17.585 14.307,-31.893 31.893,-31.893 17.585,0 31.893,14.307 31.893,31.893 0,17.586 -14.308,31.893 -31.893,31.893 z"
             id="path6130" />
        </g>
      </g>
      <g
         style="fill:#78909c;fill-opacity:1"
         id="g6140">
        <g
           style="fill:#78909c;fill-opacity:1"
           id="g6138">
          <path
             style="fill:#78909c;fill-opacity:1"
             inkscape:connector-curvature="0"
             d="m 176.774,272.717 c -4.388,-4.387 -11.501,-4.387 -15.889,0 l -22.854,22.854 c -4.387,4.387 -4.387,11.501 0.001,15.889 2.194,2.194 5.069,3.291 7.944,3.291 2.875,0 5.751,-1.098 7.944,-3.291 l 22.854,-22.854 c 4.389,-4.387 4.389,-11.502 0,-15.889 z"
             id="path6136" />
        </g>
      </g>
      <g
         style="fill:#78909c;fill-opacity:1"
         id="g6146">
        <g
           style="fill:#78909c;fill-opacity:1"
           id="g6144">
          <path
             style="fill:#78909c;fill-opacity:1"
             inkscape:connector-curvature="0"
             d="m 373.962,200.939 c -4.388,-4.387 -11.5,-4.387 -15.89,0.001 l -22.854,22.854 c -4.387,4.387 -4.387,11.501 0,15.889 2.195,2.193 5.07,3.29 7.945,3.29 2.876,0 5.75,-1.098 7.944,-3.291 l 22.854,-22.854 c 4.388,-4.388 4.388,-11.502 10e-4,-15.889 z"
             id="path6142" />
        </g>
      </g>
      <g
         style="fill:#78909c;fill-opacity:1"
         id="g6148" />
      <g
         style="fill:#78909c;fill-opacity:1"
         id="g6150" />
      <g
         style="fill:#78909c;fill-opacity:1"
         id="g6152" />
      <g
         style="fill:#78909c;fill-opacity:1"
         id="g6154" />
      <g
         style="fill:#78909c;fill-opacity:1"
         id="g6156" />
      <g
         style="fill:#78909c;fill-opacity:1"
         id="g6158" />
      <g
         style="fill:#78909c;fill-opacity:1"
         id="g6160" />
      <g
         style="fill:#78909c;fill-opacity:1"
         id="g6162" />
      <g
         style="fill:#78909c;fill-opacity:1"
         id="g6164" />
      <g
         style="fill:#78909c;fill-opacity:1"
         id="g6166" />
      <g
         style="fill:#78909c;fill-opacity:1"
         id="g6168" />
      <g
         style="fill:#78909c;fill-opacity:1"
         id="g6170" />
      <g
         style="fill:#78909c;fill-opacity:1"
         id="g6172" />
      <g
         style="fill:#78909c;fill-opacity:1"
         id="g6176" />
      <g
         style="fill:#78909c;fill-opacity:1"
         id="g6178" />
    </g>
  </g>
</svg>
